<?xml version="1.0" encoding="utf-8"?>
<svg xmlns="http://www.w3.org/2000/svg" height="32" width="32" viewBox="0 0 32 32">
  <g>
    <path id="path1" transform="rotate(0,16,16) translate(2.52250194549561,0) scale(1,1)  " fill="#000000" d="M6.1000732,24.699997L19.000256,24.699997 19.000256,26.599998 6.1000732,26.599998z M6.1000732,20L14.700195,20 14.700195,21.900002 6.1000732,21.900002z M14.400188,9.5999985L18.300235,13.299999 12.80016,15.200001z M20.500275,2.5L24.70033,6.2999992 19.600255,11.899998 19.400256,11 18.000243,10.5 18.000243,9.5999985 16.600215,9.2000008 16.400214,8.0999985 15.300194,8z M10.100127,2.3999977L18.600241,2.3999977 16.300208,4.8999977 11.000149,4.8999977 11.000149,9.0999985C11.000149,9.0999985,10.900141,12.700001,6.9000872,12.399998L2.5000339,12.399998 2.5000339,28.900002C2.5000339,29.199997,2.8000258,29.5,3.1000329,29.5L20.600268,29.5C20.900275,29.5,21.200282,29.199997,21.200282,28.900002L21.200282,12 23.700316,9.5 23.700316,28.900002C23.700316,30.599998,22.300288,32,20.600268,32L3.1000329,32C1.4000129,32,1.6370996E-07,30.599998,0,28.900002L0,13.099998 2.5000339,10.5 7.7001007,5z M23.300301,0C23.500317,0,23.700316,0.099998474,23.800309,0.20000076L26.700356,2.8999977C27.100356,3.2000008,27.000363,3.8999977,26.60035,4.2999992L26.00035,4.8999977 21.900288,1 22.500304,0.39999771C22.700303,0.099998474,23.00031,0,23.300301,0z" />
  </g>
</svg>

