<?xml version="1.0" encoding="utf-8"?>
<svg xmlns="http://www.w3.org/2000/svg" height="32" width="32" viewBox="0 0 32 32">
  <g>
    <path id="path1" transform="rotate(0,16,16) translate(0,6.85000038146973) scale(0.9,0.9)  " fill="#000000" d="M7.2999878,5.4000191L7.2999878,9.4999904 15.599976,9.4999904 15.599976,14.199998 7.2999878,14.199998 7.2999878,18.299999 3.6999817,14.999985 0,11.900012 3.5999756,8.5999975z M9.8999939,1.7000108L15.099976,6.8000116 20.899994,12.499988 26.699982,6.8000116 32,1.7000108 32,16.199995 9.8999939,16.199995 9.8999939,15.099991 16.599976,15.099991 16.599976,8.7000036 9.8999939,8.7000036z M11.199982,0L21,0 30.699982,0 25.799988,4.9000196 21,9.8000087 16.099976,4.9000196z" />
  </g>
</svg>