<?xml version="1.0" encoding="utf-8"?>
<svg xmlns="http://www.w3.org/2000/svg" height="32" width="32" viewBox="0 0 32 32">
  <g>
    <path id="path1" transform="rotate(0,16,16) translate(2.76750087738037,0) scale(1,1)  " fill="" d="M19.087009,21.455994L19.087009,24.719971 15.822024,24.719971 15.822024,26.349976 19.087009,26.349976 19.087009,29.613953 20.716006,29.613953 20.716006,26.349976 23.981021,26.349976 23.981021,24.719971 20.716006,24.719971 20.716006,21.455994z M19.746005,18.561951C23.457004,18.561951 26.464999,21.570984 26.464999,25.279968 26.464999,28.991943 23.457004,32 19.746005,32 16.035005,32 13.027009,28.991943 13.027009,25.279968 13.027009,21.570984 16.035005,18.561951 19.746005,18.561951z M2.876007,16.389954L2.876007,17.750977 12.431001,17.750977 12.431001,16.389954z M2.876007,10.48999L2.876007,11.850952 16.567018,11.850952 16.567018,10.48999z M14.221009,0.96398926L18.527009,5.5459595 15.129,5.5459595C14.628022,5.5459595,14.221009,5.1389771,14.221009,4.6389771z M1.9670106,0L12.910005,0 12.910005,4.8919678C12.910005,5.9779663,13.791017,6.8579712,14.877015,6.8579712L19.466006,6.8579712 19.466006,16.725952C14.871003,16.875977 11.17801,20.651978 11.17801,25.280945 11.17801,26.133972 11.308015,26.95697 11.541017,27.735962L1.9670106,27.735962C0.88201898,27.735962,-1.7346792E-07,26.85498,0,25.768982L0,1.96698C-1.7346792E-07,0.87994385,0.88201898,0,1.9670106,0z" />
  </g>
</svg>

