<?xml version="1.0" encoding="utf-8"?>
<svg xmlns="http://www.w3.org/2000/svg" height="32" width="32" viewBox="0 0 32 32">
  <g>
    <path id="path1" transform="rotate(0,16,16) translate(4.00001001357197,0) scale(0.999999165535669,0.999999165535669)  " fill="#000000" d="M9.9999831,23.999999L18.999983,23.999999C19.552983,23.999999 19.999983,24.448001 19.999983,24.999999 19.999983,25.551999 19.552983,25.999999 18.999983,25.999999L9.9999831,25.999999C9.4469826,25.999999 8.9999831,25.551999 8.9999831,24.999999 8.9999831,24.448001 9.4469826,23.999999 9.9999831,23.999999z M4.9999826,23.999999L5.9999826,23.999999C6.5529826,23.999999 6.9999826,24.448001 6.9999826,24.999999 6.9999826,25.551999 6.5529826,25.999999 5.9999826,25.999999L4.9999826,25.999999C4.4469826,25.999999 3.9999826,25.551999 3.9999828,24.999999 3.9999826,24.448001 4.4469826,23.999999 4.9999826,23.999999z M9.9999831,18L18.999983,18C19.552983,18 19.999983,18.448 19.999983,19 19.999983,19.551999 19.552983,19.999999 18.999983,19.999999L9.9999831,19.999999C9.4469826,19.999999 8.9999831,19.551999 8.9999831,19 8.9999831,18.448 9.4469826,18 9.9999831,18z M4.9999826,18L5.9999826,18C6.5529826,18 6.9999826,18.448 6.9999826,19 6.9999826,19.551999 6.5529826,19.999999 5.9999826,19.999999L4.9999826,19.999999C4.4469826,19.999999 3.9999826,19.551999 3.9999828,19 3.9999826,18.448 4.4469826,18 4.9999826,18z M9.9999831,12L18.999983,12C19.552983,12 19.999983,12.448 19.999983,13 19.999983,13.552 19.552983,14 18.999983,14L9.9999831,14C9.4469826,14 8.9999831,13.552 8.9999831,13 8.9999831,12.448 9.4469826,12 9.9999831,12z M4.9999826,12L5.9999826,12C6.5529826,12 6.9999826,12.448 6.9999826,13 6.9999826,13.552 6.5529826,14 5.9999826,14L4.9999826,14C4.4469826,14 3.9999826,13.552 3.9999828,13 3.9999826,12.448 4.4469826,12 4.9999826,12z M2.0000002,5.000026L2.0000002,30.000026 22,30.000026 22,5.000026 18.999983,5.000026 18.999983,6.8999999C18.999983,7.506,18.506983,8,17.899983,8L6.0999825,8C5.4929826,8,4.9999826,7.506,4.9999826,6.8999999L4.9999826,5.000026z M10.004982,2.0000001L9.9999831,2.9060001C9.9999831,3.507,9.506983,3.9999999,8.8999827,3.9999999L6.9999826,3.9999999 6.9999826,6 16.999983,6 16.999983,3.9999999 15.100983,3.9999999C14.493983,3.9999999,13.999983,3.506,13.999983,2.9L14.004982,2.0000001z M9.1089823,0L14.908983,0C15.515983,0,16.009983,0.49399996,16.009983,1.0999998L16.004982,2.0000001 17.899983,2.0000001C18.469046,2,18.937912,2.4341797,18.994297,2.9877806L18.994919,3.0000258 22,3.0000258C23.102967,3.0000257,24,3.8969984,24,5.000026L24,30.000026C24,31.102992,23.102967,32.000026,22,32.000026L2.0000002,32.000026C0.89697289,32.000026,2.365407E-07,31.102992,0,30.000026L0,5.000026C2.365407E-07,3.8969984,0.89697289,3.0000257,2.0000002,3.0000258L5.0050471,3.0000258 5.0056674,2.9877806C5.062053,2.4341797,5.5309203,2,6.0999825,2.0000001L8.0049822,2.0000001 8.0099823,1.0939997C8.0099823,0.49300003,8.5029824,0,9.1089823,0z" />
  </g>
</svg>

