<?xml version="1.0" encoding="utf-8"?>
<svg xmlns="http://www.w3.org/2000/svg" height="32" width="32" viewBox="0 0 32 32">
  <g>
    <path id="path1" transform="rotate(0,16,16) translate(4,0) scale(1,1)  " fill="#FFFFFF" d="M13.174197,12.499054C13.42994,12.499804,13.685682,12.598302,13.881177,12.794298L19.999005,18.951176 19.295122,19.654728 19.293965,19.656 19.292679,19.657169 13.739182,25.208052C13.544187,25.403048 13.288194,25.501046 13.032201,25.501046 12.776208,25.501046 12.520216,25.403048 12.325221,25.208052 11.934232,24.81706 11.934232,24.184072 12.325221,23.79408L16.171833,19.949022 4.9999676,19.949022C4.4479645,19.949022 3.9999658,19.500963 3.9999657,18.949022 3.9999658,18.39702 4.4479645,17.949022 4.9999676,17.949022L16.184037,17.949022 12.462217,14.20427C12.073228,13.812278 12.075228,13.17929 12.467217,12.790298 12.662712,12.595303 12.918454,12.498304 13.174197,12.499054z M7,3.4140005L3.382988,7.0310125 7,7.0310125z M9,2L9,9.0310116 2,9.0310116 2,30 22,30 22,2z M7.586,0L22,0C23.103001,0,24,0.89699936,24,2L24,30C24,31.103001,23.103001,32,22,32L2,32C0.89700007,32,0,31.103001,0,30L0,7.5860004z" />
  </g>
</svg>

