<?xml version="1.0" encoding="utf-8"?>
<svg xmlns="http://www.w3.org/2000/svg" height="32" width="32" viewBox="0 0 32 32">
  <g>
    <path id="path1" transform="rotate(0,16,16) translate(0,0.121506662009558) scale(0.999999761581478,0.999999761581478)  " fill="#FFFFFF" d="M5.2390408,21.088247L15.360125,21.088247C15.360125,21.088247,15.546132,22.086259,15.59113,22.272258L5.2390408,22.272258C4.967051,22.272258,4.7480397,22.052253,4.7480397,21.781255L4.7480397,21.578251C4.7480397,21.307251,4.967051,21.088247,5.2390408,21.088247z M5.2160458,17.303199L14.170113,17.303199C14.174126,17.3582,14.17112,17.414201,14.150124,17.468202L13.758122,18.487219 5.2160458,18.487219C4.9450473,18.487219,4.7250442,18.268215,4.7250442,17.996208L4.7250442,17.79421C4.7250442,17.522203,4.9450473,17.303199,5.2160458,17.303199z M5.1480522,13.587161L13.845113,13.587161 13.970114,13.867163C14.029121,14.002166,14.001121,14.160165,13.898123,14.26517L13.392106,14.771172 5.1480522,14.771172C4.8770384,14.771172,4.6570353,14.551169,4.6570353,14.280169L4.6570353,14.077164C4.6570353,13.806165,4.8770384,13.587161,5.1480522,13.587161z M23.249197,10.324123C20.131175,10.324123 17.605154,12.851152 17.605154,15.969185 17.605154,19.086225 20.131175,21.615253 23.249197,21.615253 26.367218,21.615253 28.894247,19.086225 28.894247,15.969185 28.894247,12.851152 26.367218,10.324123 23.249197,10.324123z M5.1320452,9.9081179L15.360125,9.9081179 15.360125,10.971126C15.360125,11.013126,15.352129,11.054127,15.338137,11.092129L5.1320452,11.092129C4.8600401,11.092129,4.6410441,10.873126,4.6410441,10.602126L4.6410441,10.399121C4.6410441,10.127123,4.8600401,9.9081179,5.1320452,9.9081179z M23.249197,7.2690879C23.367194,7.2690879,23.4842,7.3140866,23.574196,7.4040915L24.481202,8.3101002C24.579209,8.4081007,24.727206,8.4361006,24.854205,8.3801009L26.02821,7.8600904C26.261214,7.7560927,26.531222,7.8630964,26.634219,8.0950934L27.246224,9.4731156C27.302224,9.599116,27.429223,9.6821171,27.569224,9.6821171L29.076239,9.6821171C29.330239,9.6821171,29.535243,9.8871142,29.535243,10.142122L29.535243,11.425133C29.535243,11.564135,29.621243,11.688137,29.750241,11.738141L30.947257,12.200144C31.18525,12.291141,31.303263,12.55815,31.211251,12.795152L30.669255,14.200167C30.61826,14.331165,30.64925,14.480169,30.748249,14.578169L31.814269,15.643184C31.994263,15.823187,31.994263,16.11519,31.814269,16.295192L30.907248,17.2012C30.809256,17.299202,30.781256,17.447206,30.838263,17.574207L31.357264,18.747217C31.460261,18.98022,31.355265,19.251228,31.123253,19.354225L29.746243,19.965232C29.618252,20.021232,29.535243,20.149233,29.535243,20.289234L29.535243,21.794256C29.535243,22.049255,29.330239,22.25526,29.076239,22.25526L29.024237,22.25526 31.98526,29.371338C32.049271,29.525346,31.893263,29.678348,31.741271,29.61034L28.285233,28.085329C28.168227,28.034317,28.034239,28.088319,27.987227,28.205324L26.575228,31.638363C26.510224,31.796369,26.288222,31.796369,26.222212,31.63937L23.349188,24.748285C23.337195,24.717292 23.334189,24.684288 23.326193,24.654289 23.264197,24.663292 23.20319,24.662285 23.141194,24.647285L20.266171,31.55137C20.201168,31.707363,19.978175,31.707363,19.914162,31.550363L18.502148,28.117326C18.454159,28.001327,18.319149,27.94432,18.20315,27.996322L14.747129,29.521333C14.594128,29.589344,14.439127,29.436342,14.502117,29.28334L17.427144,22.25526 17.423146,22.25526C17.169146,22.25526,16.96315,22.049255,16.96315,21.794256L16.96315,20.511236C16.96315,20.373233,16.877135,20.248233,16.748137,20.199236L15.552128,19.737232C15.314135,19.645229,15.196123,19.379226,15.287126,19.142225L15.829138,17.736202C15.879127,17.606205,15.848135,17.4582,15.749135,17.359199L14.684124,16.295192C14.505123,16.11519,14.505123,15.823187,14.684124,15.643184L15.593129,14.735169C15.689138,14.637169,15.716131,14.488172,15.661138,14.362171L15.141129,13.189153C15.038131,12.957149,15.142121,12.68515,15.374133,12.581145L16.753142,11.972137C16.88115,11.916136,16.96315,11.789137,16.96315,11.649135L16.96315,10.142122C16.96315,9.8871142,17.169146,9.6821171,17.423146,9.6821171L18.70616,9.6821171C18.844162,9.6821171,18.969162,9.59611,19.01816,9.4671112L19.48017,8.2700983C19.571158,8.0340964,19.838173,7.9150912,20.075175,8.0060955L21.482184,8.548102C21.612175,8.600104,21.761177,8.5670992,21.860178,8.4690987L22.924197,7.4040915C23.014195,7.3140866,23.131199,7.2690879,23.249197,7.2690879z M5.1270403,5.7650729L11.604098,5.7650729C11.875096,5.7650729,12.095099,5.9840695,12.095099,6.2550761L12.095099,6.4580737C12.095099,6.7300803,11.875096,6.9490844,11.604098,6.9490844L5.1270403,6.9490844C4.8560423,6.9490844,4.6360392,6.7300803,4.6360392,6.4580737L4.6360392,6.2550761C4.6360392,5.9840695,4.8560423,5.7650729,5.1270403,5.7650729z M0.82001372,0L23.394202,0C23.847193,-2.2791892E-07,24.215208,0.36800782,24.215208,0.82001657L24.215208,6.392079 23.719202,5.8970705C23.596199,5.774068 23.433188,5.7060663 23.259192,5.7060663 23.084187,5.7060663 22.921191,5.774068 22.79819,5.8960711L22.08218,6.6130821 22.08218,2.7830364C22.08218,2.4250306,21.790184,2.1330274,21.431174,2.1330277L2.7830274,2.1330277C2.424031,2.1330274,2.1330282,2.4250306,2.133028,2.7830364L2.133028,26.339306C2.1330282,26.698303,2.424031,26.990314,2.7830274,26.990314L13.834112,26.990314 12.947112,29.122343 0.82001372,29.122343C0.36801444,29.122343,0,28.754327,0,28.302326L0,0.82001657C0,0.36800782,0.36801444,-2.2791892E-07,0.82001372,0z" />
  </g>
</svg>

