<?xml version="1.0" encoding="utf-8"?>
<svg xmlns="http://www.w3.org/2000/svg" height="32" width="32" viewBox="0 0 32 32">
  <g>
    <path id="path1" transform="rotate(0,16,16) translate(2,4.36249983310699) scale(0.875,0.875)  " fill="#000000" d="M16,7.1999997L16,9.8000068 18.5,9.8000068 18.5,7.1999997z M10.900024,7.1999997L10.900024,9.8000068 13.400024,9.8000068 13.400024,7.1999997z M5.7000122,7.1999997L5.7000122,9.8000068 8.2000122,9.8000068 8.2000122,7.1999997z M25.900024,7.0000028C29.5,8.3999967 32,11.200001 32,14.4 32,17.200003 30.100037,19.700005 27.100037,21.200005L29.900024,26.6 23.799988,22.400017C22.799988,22.599998 21.700012,22.800011 20.600037,22.800011 16.900024,22.800011 13.700012,21.499992 11.600037,19.599998L11.900024,19.599998C19.799988,19.599998 26.200012,14.9 26.200012,9.0999946 26.200012,8.3000059 26.100037,7.6999997 25.900024,7.0000028z M12.100037,0C18.799988,6.2173967E-08 24.200012,4.0000014 24.200012,8.8000059 24.200012,13.700002 18.799988,17.599997 12.100037,17.599997 10.900024,17.599997 9.7999878,17.400015 8.7000122,17.200003L2.2000122,21.700005 5.2000122,15.99999C2.1000366,14.500006 0,11.800008 0,8.8000059 0,4.0000014 5.4000244,6.2173967E-08 12.100037,0z" />
  </g>
</svg>

