<?xml version="1.0" encoding="utf-8"?>
<svg xmlns="http://www.w3.org/2000/svg" height="32" width="32" viewBox="0 0 32 32">
  <g>
    <path id="path1" transform="rotate(0,16,16) translate(0.0114946744183104,0) scale(1.00000041723269,1.00000041723269)  " fill="#000000" d="M27.198258,4.7040055L25.797259,15.511979 22.794258,12.509998 17.991276,17.312971 14.988276,14.310991 19.792267,9.5069797 16.389273,6.1050051z M5.5812977,0C6.1813024,0,6.7822989,0.20001201,7.282298,0.70098802L9.9842886,3.5029874C10.885288,4.4029806,10.885288,5.9049933,9.9842886,6.9049924L7.5832924,9.6069858C6.0812963,13.61098 8.2832874,17.012985 11.58629,20.415966 14.88827,23.717964 18.391268,25.919988 22.29426,24.418983L24.99625,22.016977 25.096257,21.916971C25.596255,21.516977 26.197253,21.215984 26.897248,21.215984 27.498244,21.215984 28.09825,21.416971 28.599255,21.916971L31.301245,24.618965C32.202246,25.519964,32.202246,27.020971,31.301245,28.021976L31.201239,28.121982 28.599255,30.72397C22.494257,34.02597 14.688273,30.623964 7.9832853,23.917976 1.3783034,17.212997 -2.0246893,9.4070041 1.2783129,3.3030057L3.8802973,0.70098802 3.9803029,0.60000536C4.3802961,0.20001201,4.9812926,0,5.5812977,0z" />
  </g>
</svg>