<?xml version="1.0" encoding="utf-8"?>
<svg xmlns="http://www.w3.org/2000/svg" height="32" width="32" viewBox="0 0 32 32">
  <g>
    <path id="path1" transform="rotate(0,16,16) translate(4.00001001357197,0) scale(0.999999165535669,0.999999165535669)  " fill="#000000" d="M19.230715,13.582051C19.486473,13.582051 19.74223,13.679799 19.937737,13.875295 20.328749,14.266287 20.328749,14.898273 19.937737,15.289266L10.30144,24.924062C10.086434,25.139058 9.8054257,25.246055 9.524417,25.246055 9.2424079,25.246055 8.9613992,25.139058 8.7463933,24.924062L5.0612794,21.239141C4.6702677,20.849149 4.6702677,20.215161 5.0612794,19.82517 5.4522916,19.434178 6.085311,19.434178 6.4753233,19.82517L9.524417,22.874106 18.523693,13.875295C18.7192,13.679799,18.974957,13.582051,19.230715,13.582051z M1.9999997,5.000026L1.9999997,30.000026 22,30.000026 22,5.000026 18.999983,5.000026 18.999983,6.8999999C18.999983,7.506,18.506983,8,17.899983,8L6.0999824,8C5.4929825,8,4.9999825,7.506,4.9999825,6.8999999L4.9999825,5.000026z M10.004982,2.0000001L9.9999829,2.9060001C9.9999829,3.507,9.5069829,3.9999999,8.8999825,3.9999999L6.9999825,3.9999999 6.9999825,6 16.999983,6 16.999983,3.9999999 15.100983,3.9999999C14.493982,3.9999999,13.999983,3.506,13.999983,2.9L14.004982,2.0000001z M9.1089822,0L14.908982,0C15.515983,0,16.009983,0.49399996,16.009983,1.0999998L16.004982,2.0000001 17.899983,2.0000001C18.469046,2,18.937912,2.4341797,18.994297,2.9877806L18.994919,3.0000258 22,3.0000258C23.103027,3.0000257,24,3.8969984,24,5.000026L24,30.000026C24,31.102992,23.103027,32.000026,22,32.000026L1.9999997,32.000026C0.89697275,32.000026,9.6849874E-08,31.102992,0,30.000026L0,5.000026C9.6849874E-08,3.8969984,0.89697275,3.0000257,1.9999997,3.0000258L5.0050469,3.0000258 5.0056673,2.9877806C5.0620528,2.4341797,5.5309201,2,6.0999824,2.0000001L8.0049821,2.0000001 8.0099822,1.0939997C8.0099822,0.49300003,8.5029822,0,9.1089822,0z" />
  </g>
</svg>

